<svg xmlns="http://www.w3.org/2000/svg" width="255" height="286">
  <path fill="#284a28" d="M37.125 242.95h-3.379v17.617h3.379zm49.363 14.55h-9.16v-4.136h8.074v-3.067h-8.074v-4.285h8.82v-3.062H73.945v17.617h12.543Zm.516 15v-3.132h-11.82v3.835h6.148l-6.383 8.891v3.215h12.078v-3.832h-6.59Zm6.992 6.746h6.516v-3.726h-6.516v-2.317h7.188v-3.835H89.859v15.945h11.625v-3.836h-7.488zm14.406-42.164 5.73-17.62h-3.648l-3.496 11.94-3.172-11.94h-3.441l-3.242 11.94-3.422-11.94h-3.676l5.633 17.62h2.828l3.594-12.597 3.457 12.597zm-94.66 18.801c-1.398 1.153-2.789 1.64-4.644 1.64-1.711 0-3.145-.566-4.141-1.64-.953-1.023-1.457-2.433-1.457-4.078 0-1.715.52-3.18 1.5-4.238.969-1.047 2.3-1.602 3.855-1.602 2.297 0 3.754 1.09 4.57 2l.169.192 2.242-2.496-.14-.153a8.5 8.5 0 0 0-2.833-1.98 9.352 9.352 0 0 0-3.789-.774c-2.789 0-5.125.918-6.746 2.653C.824 247.012 0 249.282 0 251.805c0 5.356 3.57 8.953 8.879 8.953 2.75 0 5.238-.8 6.66-2.14l.137-.13-1.735-2.769zm11.79 22.305-5.848-8.82h-3.93v15.945h4.16v-8.598l5.781 8.598h4.016v-15.945h-4.18zm83.945.719 1.28-3.938 1.298 3.938zm-.664-9.54-5.86 15.946h4.445l.907-2.766h4.902l.906 2.766h4.426l-5.84-15.945zm-40.985-26.421L61.348 251v-8.054h-3.38v17.62h3.38v-5.027l2.078-2.453c1.844 1.946 3.797 4.926 4.808 7.34l.059.14h3.695l-.117-.308c-1.207-3.195-3.734-7.07-6.187-9.508l6.484-7.804zm-6.328 35.16-2.152-8.738h-4.114l-2.203 8.726-2.343-8.726H46.12l5.008 15.945h3.68l2.515-9.36 2.403 9.36h3.66l5.05-15.945h-4.566zM23.844 251.36h-2.551v-5.348h2.746c.969 0 1.758.246 2.281.715.516.46.778 1.121.778 1.96 0 1.696-1.184 2.673-3.254 2.673M27 253.649c2.309-.809 3.574-2.61 3.574-5.106 0-1.722-.496-3.082-1.472-4.043-1.047-1.03-2.602-1.554-4.63-1.554h-6.558v17.62h3.379v-6.116h2.102c1.82 1.671 3.093 3.468 4.257 5.984l.059.133h3.75l-.129-.317c-1.086-2.632-2.394-4.629-4.332-6.601m10.207 25.597h6.52v-3.726h-6.52v-2.317h7.188v-3.835H33.07v15.945h11.625v-3.836h-7.488zm55.715-18.68h3.383v-14.554h4.93v-3.066H88.062v3.066h4.859zm103.031 18.852c1.727-1.785 2.602-3.64 2.602-5.504 0-2.851-2.114-4.691-5.387-4.691-1.973 0-3.77.563-5.344 1.68l-.16.113 1.938 3.34.195-.168c.414-.348 1.516-1.164 2.875-1.164 1.539 0 1.73 1.004 1.746 1.437.04 1.078-.656 2.043-1.79 3.242l-4.671 4.926.05 2.684h10.684v-3.738h-4.855zm11.262 2.246c-1.375 0-2.192-1.609-2.192-4.308 0-2.762.778-4.285 2.192-4.285 1.394 0 2.195 1.562 2.195 4.285 0 2.781-.781 4.308-2.195 4.308m0-12.441c-3.95 0-6.403 3.117-6.403 8.133 0 5.11 2.395 8.156 6.403 8.156 3.996 0 6.383-3.047 6.383-8.156 0-5.094-2.387-8.133-6.383-8.133m40.453-17.863h-2.43v-5.348h2.649c.98 0 1.746.242 2.27.715.507.457.765 1.117.765 1.96 0 1.724-1.156 2.673-3.254 2.673m5.273-6.758c-1.058-1.098-2.62-1.656-4.644-1.656h-6.438v17.62h3.38v-6.116h2.722c4.09 0 6.437-2.082 6.437-5.715 0-1.715-.503-3.145-1.457-4.133M187.027 257.5v-11.488h2.36c1.601 0 3.043.578 4.058 1.625 1.008 1.04 1.563 2.512 1.563 4.145 0 1.609-.559 3.062-1.57 4.09-1.051 1.066-2.5 1.628-4.196 1.628zm9.035.618c1.586-1.575 2.422-3.762 2.422-6.336 0-5.286-3.675-8.832-9.144-8.832h-5.692v17.617h5.762c2.735 0 5.031-.848 6.652-2.45m40.348.829c1.27-1.246 1.914-3.07 1.914-5.426v-10.574h-3.355v10.359c0 2.695-1.364 4.242-3.739 4.242-1.128 0-2.058-.375-2.695-1.09-.648-.73-.992-1.82-.992-3.152v-10.36h-3.356v10.575c0 2.398.665 4.246 1.973 5.492 1.219 1.16 2.922 1.746 5.07 1.746 2.215 0 3.954-.61 5.18-1.812m-111.82 10.422h-4.309v15.945h11.278v-3.836h-6.97zm111.316 10.05c1.727-1.785 2.602-3.64 2.602-5.504 0-2.851-2.113-4.691-5.387-4.691-1.973 0-3.77.563-5.344 1.68l-.16.113 1.934 3.34.199-.168c.41-.348 1.52-1.164 2.875-1.164 1.54 0 1.73 1.004 1.742 1.437.043 1.082-.652 2.043-1.785 3.242l-4.672 4.926.047 2.684h10.688v-3.738h-4.856zm-75.949-1.226-5.848-8.824h-3.93v15.945h4.16v-8.598l5.782 8.598h4.016v-15.945h-4.18zm-20.578.715 1.281-3.938 1.297 3.938zm-.664-9.54-5.86 15.946h4.446l.906-2.766h4.902l.907 2.766h4.421l-5.835-15.945zm34.219 12.11h-1.309v-8.274h1.566c2.196 0 3.793 1.75 3.793 4.16 0 2.423-1.668 4.114-4.05 4.114m.171-12.11h-5.617v15.946h5.684c4.984 0 8.207-3.121 8.207-7.95 0-4.78-3.324-7.995-8.274-7.995m-.34-26.422h-3.378v17.62h12.054V257.5h-8.675zm-13.355 8.414h-2.55v-5.348h2.745c.97 0 1.758.246 2.282.715.515.46.777 1.121.777 1.96 0 1.696-1.184 2.673-3.254 2.673m3.156 2.289c2.309-.809 3.575-2.61 3.575-5.106 0-1.722-.496-3.082-1.473-4.043-1.047-1.03-2.605-1.554-4.629-1.554h-6.559v17.62h3.38v-6.116h2.1c1.821 1.671 3.095 3.468 4.259 5.984l.058.133h3.75l-.129-.317c-1.085-2.632-2.394-4.629-4.332-6.601m23.567-34.188h-3.356v11.98l-8.43-11.98H171.2v17.621h3.356v-11.789l8.355 11.79h3.223zm36.996 59.957c1.726-1.785 2.601-3.64 2.601-5.504 0-2.851-2.113-4.691-5.386-4.691-1.973 0-3.774.563-5.348 1.68l-.156.113 1.933 3.34.2-.168c.41-.348 1.515-1.164 2.875-1.164 1.539 0 1.73 1.004 1.742 1.437.043 1.082-.652 2.043-1.785 3.242l-4.672 4.926.047 2.684h10.687v-3.738h-4.855zm-90.547-193.98c.02-.016.027-.04.02-.063-1.516-4.632-3.344-9.117-5.493-13.347a.186.186 0 0 0-.148-.102l-1.781-.11c-8.047-.5-15.746-3.538-21.84-8.581-.031-.028-.082-.012-.094.03-2.422 9.673-2.734 23.735-.828 41.321 1.559 14.356 4.926 29.399 9.48 42.367 4.832 13.766 9.418 20.532 12.04 22.36 1.964 1.375 3.546.453 4.183-.598.113-.18.008-.137-.031-.129a2.613 2.613 0 0 1-1.656-.172c-5.86-2.664-8.383-26.062-8.73-29.336-1.696-15.976 1.933-41.914 14.878-53.64m-50.86 118.098c.04.019.09 0 .106-.043l.879-2.442c.508-1.414-.043-3.004-1.34-3.766-26.476-15.609-43.554-44.492-42.11-76.511 1.083-23.973 12.368-45.149 29.63-59.79 1.144-.972 1.738-2.44 1.531-3.929L68.73 44.942c-.004-.047-.058-.07-.093-.043-22.5 16.23-37.547 41.77-38.871 71.07-1.7 37.602 19.668 71.07 51.957 87.566M93.078 30.602a77.657 77.657 0 0 1 5.574-1.8.548.548 0 0 0 .391-.438 28.373 28.373 0 0 1 4.52-11.051c.265-.29.519-.527.992-.54 3.601-.073 10.847 1.876 17.699 5.122.21.047.226-.664-.586-1.34-3.547-2.945-9.55-5.684-14.953-7.086-2.121-.55-4.156-.898-5.906-.965a.298.298 0 0 0-.247.11 34.388 34.388 0 0 0-1.757 2.351 34.213 34.213 0 0 0-5.809 15.57c-.004.044.04.079.082.067m72.219 18.992c-.711 18.527-4.223 38.613-4.223 38.613-1.89-6.804-10.406-16.347-10.406-16.347 6.219 2.004 11.762 5.09 11.762 5.09-3.297-9.829-13.63-18.051-13.63-18.051 8.067 2.203 15.024 5.949 15.024 5.949-7.84-15.687-18.613-22.09-18.613-22.09 11.867 2.516 20.086 6.836 20.086 6.836m-51.79 125.645c-4.253 2.765-10.007 7.836-11.745 10.199-.242.332-.086.676.289.508 6.082-2.75 14.472-4.989 25.148-4.989s19.067 2.239 25.149 4.989c.375.168.507-.211.289-.508-1.758-2.387-7.617-7.547-11.883-10.285a2.223 2.223 0 0 1-.738-2.95c24.582-44.515 33.359-100.09 34.851-129.687.094-1.781-.058-3.367-1.762-4.285-17.738-9.52-37.8-12.09-51.863-11.04-1.668.126-2.847.352-3.355.66-1.332.798-1.68 1.907-1.68 3.36v20.457c0 .036.016.063.035.086 21.367 20.856 28.653 59.871 23.75 89.219-1.14 6.805-6.187 38.621-17.746 30.855-8.14-5.472-19.469-35.878-22.836-66.914-3.77-34.71 1.578-48.05 6.012-53.843a.11.11 0 0 0 .023-.07V32.917c0-1.945-.968-3.074-2.496-2.804-6.879 1.207-18.492 6.039-22.312 8.543-.93.609-1.125 1.41-1.125 3.691C81 71.86 88.797 132.602 114.168 172.153a2.228 2.228 0 0 1-.66 3.086m6.922-113.973c-5.04-1.234-9.575-3.824-13.192-7.36-.027-.027-.07-.023-.09.009-1.109 1.668-2.062 3.656-2.863 5.96a.219.219 0 0 0 .059.235c5.547 4.941 12.812 8.144 20.914 8.676.047.004.082-.051.055-.094a72.447 72.447 0 0 0-4.766-7.352.186.186 0 0 0-.117-.074m94.75 184.7c2.297 0 3.75 1.089 4.566 2.003l.172.188 2.242-2.496-.14-.153a8.607 8.607 0 0 0-2.833-1.984 9.428 9.428 0 0 0-3.789-.77c-2.793 0-5.125.918-6.75 2.653-1.5 1.605-2.328 3.875-2.328 6.398 0 5.356 3.57 8.953 8.883 8.953 2.746 0 5.238-.8 6.66-2.14l.137-.13-1.738-2.769-.2.164c-1.398 1.153-2.785 1.64-4.64 1.64-1.715 0-3.145-.566-4.145-1.64-.949-1.023-1.453-2.437-1.453-4.078 0-1.715.516-3.18 1.496-4.238.973-1.047 2.305-1.602 3.86-1.602m-29.668-184.98c17.258 14.64 28.547 35.816 29.629 59.789 1.445 32.02-15.63 60.902-42.11 76.512-1.293.761-1.847 2.351-1.34 3.765l.88 2.442a.076.076 0 0 0 .105.043c32.289-16.497 53.652-49.965 51.957-87.567-1.324-29.305-16.371-54.836-38.871-71.07-.035-.027-.086-.004-.094.039l-1.687 12.117c-.208 1.488.386 2.957 1.53 3.93M152.388 219.46h-3.285l-5.547 10.075-5.547-10.075h-3.29v17.621h3.384V226.18l4.351 7.59h2.176l4.379-7.629v10.941h3.379zm57.847-92.867c.766 16.973-3.984 33.379-13.5 47.324-.18.27.063.465.297.149 11.367-15.114 17.102-33.34 16.246-52.25-1.074-23.856-12.468-44.91-29.91-59.258-.035-.031-.09-.008-.098.039l-.773 5.563c-.176 1.25.305 2.488 1.25 3.328 15.488 13.746 25.496 33.207 26.488 55.105M108.246 6.071c1.977.414 4.047.988 6.23 1.742 6.676 2.305 14.399 6.308 23.688 12.7.324.222.149-.735-.238-1.263-2.52-3.464-10.762-9.765-19.106-13.007a.09.09 0 0 1 .004-.168c3.149-1.008 7.207-1.477 11.09-1.118 12.848 1.188 23.32 11.079 25.485 23.61.035.21.187.383.394.441 1.895.528 3.734 1.094 5.52 1.692a.062.062 0 0 0 .078-.067C159.418 13.782 144.684.075 127.348 0a34.213 34.213 0 0 0-18.934 5.59c-.293.203-.562.399-.168.48m83.3 219.962 1.56-6.57h-3.391l-.8 6.57zm9.54 8.129c-1.684 0-3.195-.54-4.621-1.645l-.215-.168-1.598 3.078.164.113c1.57 1.106 3.829 1.735 6.2 1.735 4.273 0 6.437-1.809 6.437-5.375 0-3.418-2.582-4.332-5.855-5.485-2.23-.793-3.137-1.16-3.137-2.277 0-1.129.89-1.805 2.383-1.805 1.402 0 3.133.66 4.304 1.641l.192.164 1.875-2.773-.156-.133c-1.579-1.301-3.653-1.961-6.164-1.961-1.708 0-3.165.45-4.211 1.308-1.11.91-1.7 2.231-1.7 3.825 0 1.547.575 2.73 1.75 3.62 1.016.77 2.368 1.223 3.555 1.626.168.054.332.11.492.164 2.18.723 3.172 1.055 3.172 2.445 0 1.172-1.098 1.903-2.867 1.903M102.832 10.45c1.961.183 3.957.574 5.941 1.109 8.415 2.254 16.641 7.07 21.317 9.68.2.109.281-.696-.293-1.278-4.969-5.043-12.031-8.703-17.957-10.656-2.36-.777-4.543-1.293-6.336-1.5a.267.267 0 0 0-.2.059 32.193 32.193 0 0 0-2.538 2.324c-.09.09-.114.242.066.262m-23.84 211.843c1.2 0 2.36.184 3.442.524l.96-3.078c-1.085-.313-2.382-.47-3.632-.47-5.89 0-9.567 3.911-10.653 9.493-.847 4.379.336 8.473 6.485 8.473 1.64 0 3.293-.313 4.687-.782l.196-3.027c-.993.418-2.489.73-3.555.73-3.543 0-4.719-2.136-3.973-5.968.66-3.418 2.758-5.895 6.043-5.895m40.383 1.848c.992-1.086 2.383-1.688 3.922-1.688 1.476 0 2.84.579 3.824 1.63 1.004 1.066 1.555 2.554 1.555 4.187 0 1.629-.551 3.113-1.555 4.183-.988 1.055-2.348 1.633-3.824 1.633-1.54 0-2.93-.597-3.922-1.687-.973-1.067-1.508-2.531-1.508-4.13 0-1.593.535-3.058 1.508-4.128m.309 12.457c1.105.45 2.324.676 3.613.676 2.476 0 4.73-.887 6.344-2.496a8.407 8.407 0 0 0 1.867-2.848c.445-1.121.672-2.352.672-3.66 0-1.309-.227-2.543-.672-3.668a8.407 8.407 0 0 0-1.867-2.848c-1.61-1.601-3.864-2.484-6.344-2.484-1.29 0-2.508.226-3.613.676a8.277 8.277 0 0 0-2.82 1.882c-1.598 1.633-2.473 3.922-2.473 6.442 0 2.523.875 4.808 2.472 6.441a8.231 8.231 0 0 0 2.82 1.887m48.731-2.582h-9.164v-4.14h8.074v-3.063h-8.074v-4.285h8.824v-3.067h-12.203v17.621h12.543zM64.672 222.293c1.2 0 2.363.184 3.441.524l.965-3.078c-1.086-.313-2.387-.47-3.637-.47-5.886 0-9.566 3.911-10.648 9.493-.852 4.379.332 8.473 6.484 8.473 1.641 0 3.29-.313 4.684-.782l.195-3.027c-.992.418-2.484.73-3.554.73-3.543 0-4.72-2.136-3.973-5.968.664-3.418 2.762-5.895 6.043-5.895M41.117 121.817c-.851 18.906 4.883 37.136 16.25 52.25.235.316.477.12.297-.149-9.516-13.945-14.266-30.351-13.5-47.324.988-21.898 11-41.36 26.488-55.105.946-.84 1.426-2.078 1.25-3.328l-.773-5.563c-.008-.047-.063-.07-.098-.04-17.441 14.349-28.836 35.403-29.914 59.259m7.797 124.148c2.297 0 3.75 1.09 4.566 2.004l.168.188 2.247-2.496-.145-.153a8.566 8.566 0 0 0-2.832-1.984 9.401 9.401 0 0 0-3.79-.77c-2.788 0-5.12.918-6.745 2.653-1.5 1.605-2.328 3.875-2.328 6.398 0 5.356 3.57 8.953 8.883 8.953 2.746 0 5.234-.8 6.66-2.14l.132-.13-1.734-2.769-.2.164c-1.398 1.153-2.784 1.64-4.64 1.64-1.715 0-3.144-.566-4.144-1.64-.953-1.023-1.457-2.437-1.457-4.078 0-1.715.52-3.18 1.5-4.238.968-1.047 2.304-1.602 3.86-1.602m4.843-26.695h-3.39l-3.423 17.617h3.39zm111.387-13.727c-2.168-15.492-20.11-21.683-37.946-21.683s-35.777 6.191-37.945 21.683c-.063.34.117.375.246.309 9.629-5.047 22.73-7.93 37.7-7.93 14.968 0 28.07 2.883 37.698 7.93.13.066.313.031.247-.309m-56.329 37.403 5.633 17.62h2.828l3.598-12.597 3.457 12.598h2.852l5.73-17.621h-3.648l-3.496 11.945-3.168-11.945h-3.446l-3.238 11.945-3.426-11.945zm37.086 12.992c-.988 1.055-2.347 1.633-3.824 1.633-1.535 0-2.93-.598-3.922-1.688-.972-1.066-1.508-2.531-1.508-4.125 0-1.597.536-3.062 1.508-4.129.992-1.09 2.387-1.687 3.922-1.687 1.48 0 2.84.578 3.824 1.625 1.004 1.066 1.555 2.554 1.555 4.191 0 1.625-.55 3.11-1.555 4.18m-3.824-13.184c-1.289 0-2.504.227-3.613.676a8.269 8.269 0 0 0-2.82 1.887c-1.594 1.633-2.473 3.918-2.473 6.441 0 2.52.879 4.809 2.473 6.438a8.269 8.269 0 0 0 2.82 1.886c1.11.45 2.324.676 3.613.676 2.48 0 4.735-.887 6.344-2.496a8.35 8.35 0 0 0 1.867-2.848c.445-1.12.672-2.351.672-3.656 0-1.312-.227-2.547-.672-3.672a8.293 8.293 0 0 0-1.867-2.847c-1.606-1.602-3.86-2.485-6.344-2.485"/>
</svg>
